# xmcd
#
# Track frame offsets:
#	182
#	27887
#	59320
#	97167
#	136380
#	159892
#	194390
#	216775
#	238900
#	263272
#
# Disc length: 3848 seconds
# Revision: 4
# Processed by: cddbd v1.5.2PL0 Copyright (c) Steve Scherf et al.
# Submitted via: dBpowerAMP V12.0
#
DISCID=850f060a
DTITLE=Otis Rush - Live in Europe
DYEAR=1977
DGENRE=Blues
TTITLE0=Cut You Loose
TTITLE1=All Your Love
TTITLE2=You're Breaking My Heart
TTITLE3=I Wonder Why
TTITLE4=Feel So Bad
TTITLE5=Society Woman/Love Is Just a Gamble
TTITLE6=Crosscut Saw
TTITLE7=I Can't Quit You Baby
TTITLE8=I'm Tore Up
TTITLE9=Looking Back
EXTD=
EXTT0=
EXTT1=
EXTT2=
EXTT3=
EXTT4=
EXTT5=
EXTT6=
EXTT7=
EXTT8=
EXTT9=
PLAYORDER=
